<?xml version="1.0" encoding="utf-8"?>
<!-- Generator: Adobe Illustrator 26.0.1, SVG Export Plug-In . SVG Version: 6.00 Build 0)  -->
<svg version="1.1" id="Layer_1" xmlns="http://www.w3.org/2000/svg" xmlns:xlink="http://www.w3.org/1999/xlink" x="0px" y="0px"
	 viewBox="0 0 1512 387" style="enable-background:new 0 0 1512 387;" xml:space="preserve">
<style type="text/css">
	.st0{fill:#10100F;}
	.st1{opacity:0.9;}
	.st2{fill:none;stroke:#FFFFFF;}
	.st3{fill:none;}
	.st4{fill:#C3C3BB;}
	.st5{font-family:'SequelSans-MediumDisp';}
	.st6{font-size:28px;}
	.st7{font-family:'SequelSans-MediumHead';}
	.st8{font-size:100px;}
	.st9{font-family:'SequelSans-SemiBoldHead';}
	.st10{font-size:26px;}
	.st11{font-size:20px;}
</style>
<g id="Bg">
	<rect class="st0" width="1512" height="387"/>
	<rect class="st0" width="1512" height="387"/>
</g>
<g id="Bg__x28_Grain_x29_" class="st1">
	<rect class="st0" width="1512" height="387"/>
	<g>
		<image style="overflow:visible;" width="2512" height="1387" xlink:href="F2955531.png"  transform="matrix(1 0 0 1 -500 -500)">
		</image>
	</g>
</g>
<g class="st1">
	<g>
		<image style="overflow:visible;" width="1421" height="1398" xlink:href="F2955533.png"  transform="matrix(1 0 0 1 -666 -333)">
		</image>
	</g>
	<g>
		<image style="overflow:visible;" width="1297" height="1280" xlink:href="F2955536.png"  transform="matrix(1 0 0 1 -604 -278)">
		</image>
	</g>
</g>
<g class="st1">
	<image style="overflow:visible;" width="1849" height="1531" xlink:href="F2955537.png"  transform="matrix(1 0 0 1 420 -849)">
	</image>
</g>
<line id="Line" class="st2" x1="160" y1="235.5" x2="1351.1" y2="235.5"/>
<rect x="166.8" y="146.6" class="st3" width="941.7" height="69.5"/>
<text transform="matrix(1 0 0 1 166.7974 166.8315)"><tspan x="0" y="0" class="st4 st5 st6">I’m a Security Operations Analyst safeguarding digital landscapes.</tspan><tspan x="0" y="33.6" class="st4 st5 st6">Welcome to a realm where security meets ingenuity.</tspan></text>
<rect x="161.7" y="38.9" class="st3" width="941.7" height="87.1"/>
<text transform="matrix(1 0 0 1 161.6537 111.2903)" class="st4 st7 st8">Hi, I’m Bilal.</text>
<rect x="169.1" y="265.4" class="st3" width="164.6" height="36.1"/>
<text transform="matrix(1 0 0 1 169.0554 284.2466)" class="st4 st9 st10">Inspired by</text>
<rect x="168" y="305.5" class="st3" width="383.6" height="60.8"/>
<text transform="matrix(1 0 0 1 167.9527 319.9712)"><tspan x="0" y="0" class="st4 st5 st11">Persistent learning, collaborative work, &amp; </tspan><tspan x="0" y="24" class="st4 st5 st11">ethical hacking for digital resilience.</tspan></text>
<rect x="761.5" y="265.4" class="st3" width="164.6" height="36.1"/>
<text transform="matrix(1 0 0 1 761.4803 284.2466)" class="st4 st9 st10">Studying</text>
<rect x="760.9" y="306.5" class="st3" width="222.5" height="29.4"/>
<text transform="matrix(1 0 0 1 760.9304 320.982)" class="st4 st5 st11">Cyber Security @ GIKI</text>
</svg>
